<svg width="24" height="24" viewBox="0 0 24 24" fill="none" xmlns="http://www.w3.org/2000/svg">
<path d="M19.9 23.5001C19.743 23.5001 19.588 23.4501 19.458 23.3561L12 17.9281L4.54198 23.3581C4.31398 23.5221 4.01198 23.5481 3.75998 23.4181C3.50998 23.2911 3.34998 23.0331 3.34998 22.7511V5.6001C3.34998 4.3601 4.35998 3.3501 5.59998 3.3501H18.398C19.638 3.3501 20.648 4.3601 20.648 5.6001V22.7501C20.648 23.0321 20.49 23.2901 20.238 23.4181C20.132 23.4731 20.015 23.5001 19.898 23.5001H19.9ZM12 16.2501C12.155 16.2501 12.31 16.2981 12.44 16.3941L19.15 21.2771V5.6001C19.15 5.1881 18.813 4.8501 18.4 4.8501H5.59998C5.18698 4.8501 4.84998 5.1881 4.84998 5.6001V21.2771L11.56 16.3941C11.69 16.2981 11.845 16.2501 12 16.2501Z" fill="white"/>
</svg>
