<svg width="24" height="24" viewBox="0 0 24 24" fill="none" xmlns="http://www.w3.org/2000/svg">
<g clip-path="url(#clip0_23:344)">
<path d="M-35.9 16.9C-36 16.8 -36 16.8 -36 16.7C-35.9 16.7 -35.9 16.8 -35.9 16.9ZM20 1.1H18.7V0.8C18.7 0.4 18.4 0 17.9 0C17.5 0 17.1 0.3 17.1 0.8V1.1H9.7V0.8C9.7 0.4 9.4 0 8.9 0C8.5 0 8.1 0.3 8.1 0.8V1.1H6.8C5.4 1.1 4.3 2.2 4.3 3.6V16.7C4.3 18.1 5.4 19.2 6.8 19.2H9.7C10.1 19.2 10.5 18.9 10.5 18.4C10.5 18 10.2 17.6 9.7 17.6H6.8C6.2 17.6 5.8 17.1 5.8 16.6V6.8C5.8 6.5 6.2 6.1 6.8 6.1H20C20.6 6.1 21 6.5 21 6.8V8.6C21 9 21.3 9.4 21.8 9.4C22.2 9.4 22.6 9.1 22.6 8.6V3.6C22.5 2.2 21.4 1.1 20 1.1ZM21 4.8C20.7 4.7 20.3 4.6 20 4.6H6.8C6.4 4.6 6.1 4.7 5.8 4.8V3.6C5.8 3 6.3 2.6 6.8 2.6H8.1V3.1C8.1 3.5 8.4 3.9 8.9 3.9C9.3 3.9 9.7 3.6 9.7 3.1V2.6H17.2V3.1C17.2 3.5 17.5 3.9 18 3.9C18.4 3.9 18.8 3.6 18.8 3.1V2.6H20C20.6 2.6 21 3.1 21 3.6V4.8Z" fill="#1DA7F2"/>
<path d="M17.5 9.30005C14.1 9.30005 11.3 12.1 11.3 15.5C11.3 18.9 14.1 21.7 17.5 21.7C20.9 21.7 23.7 18.9 23.7 15.5C23.7 12.1 20.9 9.30005 17.5 9.30005ZM17.5 20.3C14.9 20.3 12.8 18.2001 12.8 15.6C12.8 13.0001 14.9 10.9 17.5 10.9C20.1 10.9 22.2 13.0001 22.2 15.6C22.2 18.1 20.1 20.3 17.5 20.3Z" fill="#1DA7F2"/>
<path d="M20.9 17.6001C20.8 17.8001 20.5 18.0001 20.3 18.0001C20.2 18.0001 20 18.0001 19.9 17.9001L16.8 15.9001V12.9001C16.8 12.5001 17.1 12.1001 17.6 12.1001C18 12.1001 18.4 12.4001 18.4 12.9001V15.1001L20.8 16.6001C21 16.8001 21.1 17.2001 20.9 17.6001Z" fill="#1DA7F2"/>
</g>
<defs>
<clipPath id="clip0_23:344">
<rect width="24" height="24" fill="white"/>
</clipPath>
</defs>
</svg>
