<svg width="24" height="24" viewBox="0 0 24 24" fill="none" xmlns="http://www.w3.org/2000/svg">
<path d="M20.585 9.4681C21.245 9.4681 21.785 8.9301 21.785 8.2681C21.785 7.6061 21.245 7.0681 20.585 7.0681H17.365L17.675 3.5211C17.702 3.2031 17.605 2.8911 17.398 2.6461C17.192 2.4011 16.903 2.2501 16.576 2.2211C15.926 2.1861 15.341 2.6531 15.283 3.3141L14.957 7.0681H9.9L10.208 3.5231C10.268 2.8651 9.778 2.2811 9.111 2.2211C8.446 2.1711 7.876 2.6511 7.818 3.3131L7.493 7.0671H4.163C3.5 7.0671 2.963 7.6051 2.963 8.2671C2.963 8.9291 3.501 9.4671 4.163 9.4671H7.285L6.845 14.5311H3.416C2.754 14.5311 2.216 15.0711 2.216 15.7311C2.216 16.3911 2.754 16.9331 3.416 16.9331H6.636L6.326 20.4811C6.269 21.1381 6.758 21.7211 7.416 21.7811L7.522 21.7861C8.148 21.7861 8.662 21.3141 8.717 20.6881L9.044 16.9351H14.1L13.792 20.4791C13.732 21.1371 14.222 21.7211 14.882 21.7811L14.988 21.7861C15.605 21.7861 16.13 21.3041 16.183 20.6881L16.508 16.9351H19.838C20.498 16.9351 21.038 16.3951 21.038 15.7351C21.038 15.0751 20.498 14.5331 19.838 14.5331H16.716L17.156 9.4691H20.586L20.585 9.4681ZM14.747 9.4681L14.307 14.5311H9.253L9.693 9.4691H14.748L14.747 9.4681Z" fill="white"/>
</svg>
