<svg width="24" height="24" viewBox="0 0 24 24" fill="none" xmlns="http://www.w3.org/2000/svg">
<path d="M12 21.6381H11.986C9.40301 21.5901 1.95001 14.8561 1.95001 8.47812C1.95001 5.41412 4.47501 2.72412 7.35301 2.72412C9.64301 2.72412 11.183 4.30412 11.999 5.45412C12.813 4.30612 14.353 2.72412 16.644 2.72412C19.524 2.72412 22.048 5.41412 22.048 8.47912C22.048 14.8551 14.594 21.5891 12.011 21.6361H12V21.6381ZM7.35401 4.22512C5.27401 4.22512 3.45101 6.21312 3.45101 8.48012C3.45101 14.2201 10.485 20.0761 12.001 20.1381C13.519 20.0761 20.551 14.2211 20.551 8.48012C20.551 6.21312 18.728 4.22512 16.648 4.22512C14.12 4.22512 12.708 7.16112 12.696 7.19012C12.466 7.75212 11.54 7.75212 11.309 7.19012C11.295 7.16012 9.88401 4.22512 7.35501 4.22512H7.35401Z" fill="white"/>
</svg>
