<svg width="24" height="24" viewBox="0 0 24 24" fill="none" xmlns="http://www.w3.org/2000/svg">
<path d="M20.7 0H3.3C1.4796 0 0 1.64533 0 3.66933V20.3293C0 22.3533 1.4796 24 3.3 24H20.7C22.5204 24 24 22.3533 24 20.3293V3.66933C24 1.64533 22.5204 0 20.7 0ZM3.3 2H20.7C21.528 2 22.2 2.74667 22.2 3.66667V4.61867L12.54 11.7747C12.2124 12.0147 11.7888 12.0173 11.46 11.772L1.8 4.61867V3.66667C1.8 2.74667 2.472 2 3.3 2ZM20.7 21.9973H3.3C2.472 21.9973 1.8 21.2507 1.8 20.3307V6.96267L10.488 13.4027C10.9476 13.744 11.4744 13.9147 12 13.9147C12.528 13.9147 13.0524 13.744 13.512 13.404L22.2 6.964V20.3267C22.2 21.2467 21.528 21.9933 20.7 21.9933V21.9973Z" fill="white"/>
</svg>
