<svg width="24" height="24" viewBox="0 0 24 24" fill="none" xmlns="http://www.w3.org/2000/svg">
<path d="M11.55 12.082C11.823 12.264 12.177 12.264 12.45 12.082L22 5.716V5.5C22 4.26 20.99 3.25 19.75 3.25H4.25C3.01 3.25 2 4.26 2 5.5V5.697L11.55 12.082Z" fill="white"/>
<path d="M13.26 13.2949C12.877 13.5499 12.44 13.6769 12 13.6769C11.56 13.6769 11.123 13.5499 10.74 13.2939L2 7.4519V19.1219C2 20.3619 3.01 21.3719 4.25 21.3719H19.75C20.99 21.3719 22 20.3619 22 19.1219V7.4699L13.26 13.2929V13.2949Z" fill="white"/>
</svg>
