<svg width="24" height="24" viewBox="0 0 24 24" fill="none" xmlns="http://www.w3.org/2000/svg">
<path d="M14.046 2.24193L9.89801 2.23193H9.89601C5.52201 2.23193 2.09601 5.65893 2.09601 10.0339C2.09601 14.1319 5.28201 17.2399 9.56101 17.4039V21.2319C9.56101 21.3399 9.60501 21.5179 9.68101 21.6349C9.82301 21.8599 10.065 21.9819 10.313 21.9819C10.451 21.9819 10.59 21.9439 10.715 21.8639C10.979 21.6959 17.188 17.7239 18.803 16.3579C20.705 14.7479 21.843 12.3879 21.846 10.0459V10.0289C21.84 5.66193 18.416 2.24193 14.046 2.24093V2.24193ZM17.833 15.2139C16.699 16.1739 12.971 18.6189 11.061 19.8569V16.6699C11.061 16.2559 10.726 15.9199 10.311 15.9199H9.91501C6.25501 15.9199 3.59701 13.4439 3.59701 10.0339C3.59701 6.49993 6.36501 3.73193 9.89701 3.73193L14.044 3.74193H14.046C17.578 3.74193 20.346 6.50793 20.348 10.0379C20.345 11.9479 19.406 13.8819 17.834 15.2139H17.833Z" fill="white"/>
</svg>
