<svg width="20" height="20" viewBox="0 0 20 20" fill="none" xmlns="http://www.w3.org/2000/svg">
<path d="M17.9417 17.0584L14.8917 14.0084C15.9959 12.7001 16.6667 11.0117 16.6667 9.16675C16.6667 5.02508 13.3084 1.66675 9.16669 1.66675C5.02502 1.66675 1.66669 5.02508 1.66669 9.16675C1.66669 13.3084 5.02502 16.6667 9.16669 16.6667C11.0125 16.6667 12.7 15.9967 14.0067 14.8917L17.0567 17.9417C17.1792 18.0634 17.34 18.1251 17.4984 18.1251C17.6567 18.1251 17.8192 18.0642 17.94 17.9417C18.1859 17.6976 18.1859 17.3026 17.9417 17.0584ZM2.91669 9.16675C2.91669 5.72091 5.72085 2.91675 9.16669 2.91675C12.6125 2.91675 15.4167 5.72091 15.4167 9.16675C15.4167 12.6126 12.6125 15.4167 9.16669 15.4167C5.72085 15.4167 2.91669 12.6126 2.91669 9.16675Z" fill="white"/>
</svg>
