<svg width="24" height="24" viewBox="0 0 24 24" fill="none" xmlns="http://www.w3.org/2000/svg">
<path d="M20.222 9.15991H18.888C18.903 9.06991 18.916 8.97791 18.916 8.88291V6.56991C18.916 5.58991 18.119 4.79291 17.138 4.79291H3.5V3.35791C3.5 2.94391 3.164 2.60791 2.75 2.60791C2.336 2.60791 2 2.94391 2 3.35791V20.8299C2 21.2449 2.336 21.5799 2.75 21.5799C3.164 21.5799 3.5 21.2449 3.5 20.8299V19.3959H14.056C15.036 19.3959 15.834 18.5989 15.834 17.6189V15.3059C15.834 15.2109 15.82 15.1189 15.806 15.0279H20.223C21.203 15.0279 22.001 14.2299 22.001 13.2499V10.9399C22.001 9.95691 21.204 9.15991 20.223 9.15991H20.222ZM17.14 6.29291C17.292 6.29291 17.417 6.41691 17.417 6.56991V8.87991C17.417 9.03391 17.292 9.15991 17.139 9.15991H3.5V6.28991H17.14V6.29291ZM14.333 15.3069V17.6189C14.333 17.7719 14.208 17.8959 14.055 17.8959H3.5V15.0279H14.056C14.209 15.0279 14.333 15.1539 14.333 15.3079V15.3069ZM20.5 13.2499C20.5 13.4029 20.375 13.5269 20.222 13.5269H3.5V10.6599H20.222C20.375 10.6599 20.5 10.7839 20.5 10.9369V13.2499Z" fill="#1DA7F2"/>
</svg>
